<mxfile host="app.diagrams.net" modified="2024-06-02T13:24:19.579Z" agent="Mozilla/5.0 (Windows NT 10.0; Win64; x64) AppleWebKit/537.36 (KHTML, like Gecko) Chrome/125.0.0.0 Safari/537.36" etag="kTmnwnxUrZe9Uev5iyxn" version="24.4.6" type="device">
  <diagram name="PÃ¡gina-1" id="Uz9CF_v_UnYyaBsMOPZq">
    <mxGraphModel dx="1000" dy="497" grid="1" gridSize="10" guides="1" tooltips="1" connect="1" arrows="1" fold="1" page="1" pageScale="1" pageWidth="1920" pageHeight="1200" math="0" shadow="0">
      <root>
        <mxCell id="0" />
        <mxCell id="1" parent="0" />
        <mxCell id="ZLcBtpVqOijyaWh5OA2J-127" value="" style="rounded=1;whiteSpace=wrap;html=1;" parent="1" vertex="1">
          <mxGeometry x="680" y="40" width="1200" height="1120" as="geometry" />
        </mxCell>
        <mxCell id="ZLcBtpVqOijyaWh5OA2J-1" value="" style="shape=cylinder3;whiteSpace=wrap;html=1;boundedLbl=1;backgroundOutline=1;size=15;strokeWidth=2;movable=0;resizable=0;rotatable=0;deletable=0;editable=0;locked=1;connectable=0;" parent="1" vertex="1">
          <mxGeometry x="1470" y="640" width="330" height="440" as="geometry" />
        </mxCell>
        <mxCell id="ZLcBtpVqOijyaWh5OA2J-20" value="&lt;b style=&quot;&quot;&gt;&lt;font style=&quot;font-size: 40px;&quot;&gt;BD&lt;/font&gt;&lt;/b&gt;" style="text;html=1;strokeColor=none;fillColor=none;align=center;verticalAlign=middle;whiteSpace=wrap;rounded=0;movable=0;resizable=0;rotatable=0;deletable=0;editable=0;locked=1;connectable=0;" parent="1" vertex="1">
          <mxGeometry x="1730" y="680" width="55" height="30" as="geometry" />
        </mxCell>
        <mxCell id="ZLcBtpVqOijyaWh5OA2J-21" value="" style="shape=table;startSize=0;container=1;collapsible=0;childLayout=tableLayout;verticalAlign=bottom;horizontal=0;movable=0;resizable=0;rotatable=0;deletable=0;editable=0;locked=1;connectable=0;" parent="1" vertex="1">
          <mxGeometry x="1522.5" y="730" width="225" height="80" as="geometry" />
        </mxCell>
        <mxCell id="ZLcBtpVqOijyaWh5OA2J-22" value="" style="shape=tableRow;horizontal=0;startSize=0;swimlaneHead=0;swimlaneBody=0;strokeColor=inherit;top=0;left=0;bottom=0;right=0;collapsible=0;dropTarget=0;fillColor=none;points=[[0,0.5],[1,0.5]];portConstraint=eastwest;movable=0;resizable=0;rotatable=0;deletable=0;editable=0;locked=1;connectable=0;" parent="ZLcBtpVqOijyaWh5OA2J-21" vertex="1">
          <mxGeometry width="225" height="29" as="geometry" />
        </mxCell>
        <mxCell id="ZLcBtpVqOijyaWh5OA2J-23" value="&lt;b style=&quot;font-size: 10px;&quot;&gt;DNI&lt;/b&gt;" style="shape=partialRectangle;html=1;whiteSpace=wrap;connectable=0;strokeColor=inherit;overflow=hidden;fillColor=none;top=0;left=0;bottom=0;right=0;pointerEvents=1;fontSize=10;align=center;movable=0;resizable=0;rotatable=0;deletable=0;editable=0;locked=1;" parent="ZLcBtpVqOijyaWh5OA2J-22" vertex="1">
          <mxGeometry width="77" height="29" as="geometry">
            <mxRectangle width="77" height="29" as="alternateBounds" />
          </mxGeometry>
        </mxCell>
        <mxCell id="ZLcBtpVqOijyaWh5OA2J-24" value="&lt;b style=&quot;font-size: 10px;&quot;&gt;Nombre&lt;/b&gt;" style="shape=partialRectangle;html=1;whiteSpace=wrap;connectable=0;strokeColor=inherit;overflow=hidden;fillColor=none;top=0;left=0;bottom=0;right=0;pointerEvents=1;align=center;fontSize=10;verticalAlign=middle;movable=0;resizable=0;rotatable=0;deletable=0;editable=0;locked=1;" parent="ZLcBtpVqOijyaWh5OA2J-22" vertex="1">
          <mxGeometry x="77" width="71" height="29" as="geometry">
            <mxRectangle width="71" height="29" as="alternateBounds" />
          </mxGeometry>
        </mxCell>
        <mxCell id="ZLcBtpVqOijyaWh5OA2J-25" value="&lt;b&gt;&lt;font style=&quot;font-size: 10px;&quot;&gt;Apellidos&lt;/font&gt;&lt;/b&gt;" style="shape=partialRectangle;html=1;whiteSpace=wrap;connectable=0;strokeColor=inherit;overflow=hidden;fillColor=none;top=0;left=0;bottom=0;right=0;pointerEvents=1;verticalAlign=middle;movable=0;resizable=0;rotatable=0;deletable=0;editable=0;locked=1;" parent="ZLcBtpVqOijyaWh5OA2J-22" vertex="1">
          <mxGeometry x="148" width="77" height="29" as="geometry">
            <mxRectangle width="77" height="29" as="alternateBounds" />
          </mxGeometry>
        </mxCell>
        <mxCell id="ZLcBtpVqOijyaWh5OA2J-26" value="" style="shape=tableRow;horizontal=0;startSize=0;swimlaneHead=0;swimlaneBody=0;strokeColor=inherit;top=0;left=0;bottom=0;right=0;collapsible=0;dropTarget=0;fillColor=none;points=[[0,0.5],[1,0.5]];portConstraint=eastwest;movable=0;resizable=0;rotatable=0;deletable=0;editable=0;locked=1;connectable=0;" parent="ZLcBtpVqOijyaWh5OA2J-21" vertex="1">
          <mxGeometry y="29" width="225" height="25" as="geometry" />
        </mxCell>
        <mxCell id="ZLcBtpVqOijyaWh5OA2J-27" value="1234A" style="shape=partialRectangle;html=1;whiteSpace=wrap;connectable=0;strokeColor=inherit;overflow=hidden;fillColor=none;top=0;left=0;bottom=0;right=0;pointerEvents=1;movable=0;resizable=0;rotatable=0;deletable=0;editable=0;locked=1;" parent="ZLcBtpVqOijyaWh5OA2J-26" vertex="1">
          <mxGeometry width="77" height="25" as="geometry">
            <mxRectangle width="77" height="25" as="alternateBounds" />
          </mxGeometry>
        </mxCell>
        <mxCell id="ZLcBtpVqOijyaWh5OA2J-28" value="Juanba" style="shape=partialRectangle;html=1;whiteSpace=wrap;connectable=0;strokeColor=inherit;overflow=hidden;fillColor=none;top=0;left=0;bottom=0;right=0;pointerEvents=1;movable=0;resizable=0;rotatable=0;deletable=0;editable=0;locked=1;" parent="ZLcBtpVqOijyaWh5OA2J-26" vertex="1">
          <mxGeometry x="77" width="71" height="25" as="geometry">
            <mxRectangle width="71" height="25" as="alternateBounds" />
          </mxGeometry>
        </mxCell>
        <mxCell id="ZLcBtpVqOijyaWh5OA2J-29" value="Peris" style="shape=partialRectangle;html=1;whiteSpace=wrap;connectable=0;strokeColor=inherit;overflow=hidden;fillColor=none;top=0;left=0;bottom=0;right=0;pointerEvents=1;movable=0;resizable=0;rotatable=0;deletable=0;editable=0;locked=1;" parent="ZLcBtpVqOijyaWh5OA2J-26" vertex="1">
          <mxGeometry x="148" width="77" height="25" as="geometry">
            <mxRectangle width="77" height="25" as="alternateBounds" />
          </mxGeometry>
        </mxCell>
        <mxCell id="ZLcBtpVqOijyaWh5OA2J-30" value="" style="shape=tableRow;horizontal=0;startSize=0;swimlaneHead=0;swimlaneBody=0;strokeColor=inherit;top=0;left=0;bottom=0;right=0;collapsible=0;dropTarget=0;fillColor=none;points=[[0,0.5],[1,0.5]];portConstraint=eastwest;movable=0;resizable=0;rotatable=0;deletable=0;editable=0;locked=1;connectable=0;" parent="ZLcBtpVqOijyaWh5OA2J-21" vertex="1">
          <mxGeometry y="54" width="225" height="26" as="geometry" />
        </mxCell>
        <mxCell id="ZLcBtpVqOijyaWh5OA2J-31" value="5678B" style="shape=partialRectangle;html=1;whiteSpace=wrap;connectable=0;strokeColor=inherit;overflow=hidden;fillColor=none;top=0;left=0;bottom=0;right=0;pointerEvents=1;movable=0;resizable=0;rotatable=0;deletable=0;editable=0;locked=1;" parent="ZLcBtpVqOijyaWh5OA2J-30" vertex="1">
          <mxGeometry width="77" height="26" as="geometry">
            <mxRectangle width="77" height="26" as="alternateBounds" />
          </mxGeometry>
        </mxCell>
        <mxCell id="ZLcBtpVqOijyaWh5OA2J-32" value="Ariel" style="shape=partialRectangle;html=1;whiteSpace=wrap;connectable=0;strokeColor=inherit;overflow=hidden;fillColor=none;top=0;left=0;bottom=0;right=0;pointerEvents=1;movable=0;resizable=0;rotatable=0;deletable=0;editable=0;locked=1;" parent="ZLcBtpVqOijyaWh5OA2J-30" vertex="1">
          <mxGeometry x="77" width="71" height="26" as="geometry">
            <mxRectangle width="71" height="26" as="alternateBounds" />
          </mxGeometry>
        </mxCell>
        <mxCell id="ZLcBtpVqOijyaWh5OA2J-33" value="Bejaran" style="shape=partialRectangle;html=1;whiteSpace=wrap;connectable=0;strokeColor=inherit;overflow=hidden;fillColor=none;top=0;left=0;bottom=0;right=0;pointerEvents=1;movable=0;resizable=0;rotatable=0;deletable=0;editable=0;locked=1;" parent="ZLcBtpVqOijyaWh5OA2J-30" vertex="1">
          <mxGeometry x="148" width="77" height="26" as="geometry">
            <mxRectangle width="77" height="26" as="alternateBounds" />
          </mxGeometry>
        </mxCell>
        <mxCell id="ZLcBtpVqOijyaWh5OA2J-37" value="Persona" style="text;html=1;strokeColor=none;fillColor=none;align=center;verticalAlign=middle;whiteSpace=wrap;rounded=0;fontStyle=1;fontSize=14;movable=0;resizable=0;rotatable=0;deletable=0;editable=0;locked=1;connectable=0;" parent="1" vertex="1">
          <mxGeometry x="1582.5" y="700" width="105" height="20" as="geometry" />
        </mxCell>
        <mxCell id="ZLcBtpVqOijyaWh5OA2J-52" value="Asignatura" style="text;html=1;strokeColor=none;fillColor=none;align=center;verticalAlign=middle;whiteSpace=wrap;rounded=0;fontStyle=1;fontSize=14;movable=0;resizable=0;rotatable=0;deletable=0;editable=0;locked=1;connectable=0;" parent="1" vertex="1">
          <mxGeometry x="1576.25" y="820" width="117.5" height="20" as="geometry" />
        </mxCell>
        <mxCell id="ZLcBtpVqOijyaWh5OA2J-66" value="Matricula" style="text;html=1;strokeColor=none;fillColor=none;align=center;verticalAlign=middle;whiteSpace=wrap;rounded=0;fontStyle=1;fontSize=14;movable=0;resizable=0;rotatable=0;deletable=0;editable=0;locked=1;connectable=0;" parent="1" vertex="1">
          <mxGeometry x="1582.5" y="940" width="105" height="20" as="geometry" />
        </mxCell>
        <mxCell id="ZLcBtpVqOijyaWh5OA2J-80" value="" style="shape=table;startSize=0;container=1;collapsible=0;childLayout=tableLayout;verticalAlign=bottom;movable=0;resizable=0;rotatable=0;deletable=0;editable=0;locked=1;connectable=0;" parent="1" vertex="1">
          <mxGeometry x="1522.5" y="850" width="225" height="80" as="geometry" />
        </mxCell>
        <mxCell id="ZLcBtpVqOijyaWh5OA2J-81" value="" style="shape=tableRow;horizontal=0;startSize=0;swimlaneHead=0;swimlaneBody=0;strokeColor=inherit;top=0;left=0;bottom=0;right=0;collapsible=0;dropTarget=0;fillColor=none;points=[[0,0.5],[1,0.5]];portConstraint=eastwest;verticalAlign=bottom;movable=0;resizable=0;rotatable=0;deletable=0;editable=0;locked=1;connectable=0;" parent="ZLcBtpVqOijyaWh5OA2J-80" vertex="1">
          <mxGeometry width="225" height="27" as="geometry" />
        </mxCell>
        <mxCell id="ZLcBtpVqOijyaWh5OA2J-82" value="&lt;b&gt;&lt;font style=&quot;font-size: 10px;&quot;&gt;CÃ³digo&lt;/font&gt;&lt;/b&gt;" style="shape=partialRectangle;html=1;whiteSpace=wrap;connectable=0;strokeColor=inherit;overflow=hidden;fillColor=none;top=0;left=0;bottom=0;right=0;pointerEvents=1;verticalAlign=middle;movable=0;resizable=0;rotatable=0;deletable=0;editable=0;locked=1;" parent="ZLcBtpVqOijyaWh5OA2J-81" vertex="1">
          <mxGeometry width="113" height="27" as="geometry">
            <mxRectangle width="113" height="27" as="alternateBounds" />
          </mxGeometry>
        </mxCell>
        <mxCell id="ZLcBtpVqOijyaWh5OA2J-83" value="&lt;b&gt;&lt;font style=&quot;font-size: 10px;&quot;&gt;Nombre&amp;nbsp;&lt;/font&gt;&lt;/b&gt;" style="shape=partialRectangle;html=1;whiteSpace=wrap;connectable=0;strokeColor=inherit;overflow=hidden;fillColor=none;top=0;left=0;bottom=0;right=0;pointerEvents=1;verticalAlign=middle;movable=0;resizable=0;rotatable=0;deletable=0;editable=0;locked=1;" parent="ZLcBtpVqOijyaWh5OA2J-81" vertex="1">
          <mxGeometry x="113" width="112" height="27" as="geometry">
            <mxRectangle width="112" height="27" as="alternateBounds" />
          </mxGeometry>
        </mxCell>
        <mxCell id="ZLcBtpVqOijyaWh5OA2J-84" value="" style="shape=tableRow;horizontal=0;startSize=0;swimlaneHead=0;swimlaneBody=0;strokeColor=inherit;top=0;left=0;bottom=0;right=0;collapsible=0;dropTarget=0;fillColor=none;points=[[0,0.5],[1,0.5]];portConstraint=eastwest;movable=0;resizable=0;rotatable=0;deletable=0;editable=0;locked=1;connectable=0;" parent="ZLcBtpVqOijyaWh5OA2J-80" vertex="1">
          <mxGeometry y="27" width="225" height="26" as="geometry" />
        </mxCell>
        <mxCell id="ZLcBtpVqOijyaWh5OA2J-85" value="CS101" style="shape=partialRectangle;html=1;whiteSpace=wrap;connectable=0;strokeColor=inherit;overflow=hidden;fillColor=none;top=0;left=0;bottom=0;right=0;pointerEvents=1;movable=0;resizable=0;rotatable=0;deletable=0;editable=0;locked=1;" parent="ZLcBtpVqOijyaWh5OA2J-84" vertex="1">
          <mxGeometry width="113" height="26" as="geometry">
            <mxRectangle width="113" height="26" as="alternateBounds" />
          </mxGeometry>
        </mxCell>
        <mxCell id="ZLcBtpVqOijyaWh5OA2J-86" value="EconomÃ­a" style="shape=partialRectangle;html=1;whiteSpace=wrap;connectable=0;strokeColor=inherit;overflow=hidden;fillColor=none;top=0;left=0;bottom=0;right=0;pointerEvents=1;movable=0;resizable=0;rotatable=0;deletable=0;editable=0;locked=1;" parent="ZLcBtpVqOijyaWh5OA2J-84" vertex="1">
          <mxGeometry x="113" width="112" height="26" as="geometry">
            <mxRectangle width="112" height="26" as="alternateBounds" />
          </mxGeometry>
        </mxCell>
        <mxCell id="ZLcBtpVqOijyaWh5OA2J-87" value="" style="shape=tableRow;horizontal=0;startSize=0;swimlaneHead=0;swimlaneBody=0;strokeColor=inherit;top=0;left=0;bottom=0;right=0;collapsible=0;dropTarget=0;fillColor=none;points=[[0,0.5],[1,0.5]];portConstraint=eastwest;movable=0;resizable=0;rotatable=0;deletable=0;editable=0;locked=1;connectable=0;" parent="ZLcBtpVqOijyaWh5OA2J-80" vertex="1">
          <mxGeometry y="53" width="225" height="27" as="geometry" />
        </mxCell>
        <mxCell id="ZLcBtpVqOijyaWh5OA2J-88" value="PROG2" style="shape=partialRectangle;html=1;whiteSpace=wrap;connectable=0;strokeColor=inherit;overflow=hidden;fillColor=none;top=0;left=0;bottom=0;right=0;pointerEvents=1;movable=0;resizable=0;rotatable=0;deletable=0;editable=0;locked=1;" parent="ZLcBtpVqOijyaWh5OA2J-87" vertex="1">
          <mxGeometry width="113" height="27" as="geometry">
            <mxRectangle width="113" height="27" as="alternateBounds" />
          </mxGeometry>
        </mxCell>
        <mxCell id="ZLcBtpVqOijyaWh5OA2J-89" value="ProgramaciÃ³n 2" style="shape=partialRectangle;html=1;whiteSpace=wrap;connectable=0;strokeColor=inherit;overflow=hidden;fillColor=none;top=0;left=0;bottom=0;right=0;pointerEvents=1;movable=0;resizable=0;rotatable=0;deletable=0;editable=0;locked=1;" parent="ZLcBtpVqOijyaWh5OA2J-87" vertex="1">
          <mxGeometry x="113" width="112" height="27" as="geometry">
            <mxRectangle width="112" height="27" as="alternateBounds" />
          </mxGeometry>
        </mxCell>
        <mxCell id="ZLcBtpVqOijyaWh5OA2J-90" value="" style="shape=table;startSize=0;container=1;collapsible=0;childLayout=tableLayout;movable=0;resizable=0;rotatable=0;deletable=0;editable=0;locked=1;connectable=0;" parent="1" vertex="1">
          <mxGeometry x="1522.5" y="970" width="225" height="80" as="geometry" />
        </mxCell>
        <mxCell id="ZLcBtpVqOijyaWh5OA2J-91" value="" style="shape=tableRow;horizontal=0;startSize=0;swimlaneHead=0;swimlaneBody=0;strokeColor=inherit;top=0;left=0;bottom=0;right=0;collapsible=0;dropTarget=0;fillColor=none;points=[[0,0.5],[1,0.5]];portConstraint=eastwest;movable=0;resizable=0;rotatable=0;deletable=0;editable=0;locked=1;connectable=0;" parent="ZLcBtpVqOijyaWh5OA2J-90" vertex="1">
          <mxGeometry width="225" height="27" as="geometry" />
        </mxCell>
        <mxCell id="ZLcBtpVqOijyaWh5OA2J-92" value="&lt;b&gt;&lt;font style=&quot;font-size: 10px;&quot;&gt;DNI&lt;/font&gt;&lt;/b&gt;" style="shape=partialRectangle;html=1;whiteSpace=wrap;connectable=0;strokeColor=inherit;overflow=hidden;fillColor=none;top=0;left=0;bottom=0;right=0;pointerEvents=1;movable=0;resizable=0;rotatable=0;deletable=0;editable=0;locked=1;" parent="ZLcBtpVqOijyaWh5OA2J-91" vertex="1">
          <mxGeometry width="113" height="27" as="geometry">
            <mxRectangle width="113" height="27" as="alternateBounds" />
          </mxGeometry>
        </mxCell>
        <mxCell id="ZLcBtpVqOijyaWh5OA2J-93" value="&lt;font style=&quot;font-size: 10px;&quot;&gt;&lt;b&gt;CÃ³digo&lt;/b&gt;&lt;/font&gt;" style="shape=partialRectangle;html=1;whiteSpace=wrap;connectable=0;strokeColor=inherit;overflow=hidden;fillColor=none;top=0;left=0;bottom=0;right=0;pointerEvents=1;movable=0;resizable=0;rotatable=0;deletable=0;editable=0;locked=1;" parent="ZLcBtpVqOijyaWh5OA2J-91" vertex="1">
          <mxGeometry x="113" width="112" height="27" as="geometry">
            <mxRectangle width="112" height="27" as="alternateBounds" />
          </mxGeometry>
        </mxCell>
        <mxCell id="ZLcBtpVqOijyaWh5OA2J-94" value="" style="shape=tableRow;horizontal=0;startSize=0;swimlaneHead=0;swimlaneBody=0;strokeColor=inherit;top=0;left=0;bottom=0;right=0;collapsible=0;dropTarget=0;fillColor=none;points=[[0,0.5],[1,0.5]];portConstraint=eastwest;movable=0;resizable=0;rotatable=0;deletable=0;editable=0;locked=1;connectable=0;" parent="ZLcBtpVqOijyaWh5OA2J-90" vertex="1">
          <mxGeometry y="27" width="225" height="26" as="geometry" />
        </mxCell>
        <mxCell id="ZLcBtpVqOijyaWh5OA2J-95" value="1234A" style="shape=partialRectangle;html=1;whiteSpace=wrap;connectable=0;strokeColor=inherit;overflow=hidden;fillColor=none;top=0;left=0;bottom=0;right=0;pointerEvents=1;movable=0;resizable=0;rotatable=0;deletable=0;editable=0;locked=1;" parent="ZLcBtpVqOijyaWh5OA2J-94" vertex="1">
          <mxGeometry width="113" height="26" as="geometry">
            <mxRectangle width="113" height="26" as="alternateBounds" />
          </mxGeometry>
        </mxCell>
        <mxCell id="ZLcBtpVqOijyaWh5OA2J-96" value="PROG2" style="shape=partialRectangle;html=1;whiteSpace=wrap;connectable=0;strokeColor=inherit;overflow=hidden;fillColor=none;top=0;left=0;bottom=0;right=0;pointerEvents=1;movable=0;resizable=0;rotatable=0;deletable=0;editable=0;locked=1;" parent="ZLcBtpVqOijyaWh5OA2J-94" vertex="1">
          <mxGeometry x="113" width="112" height="26" as="geometry">
            <mxRectangle width="112" height="26" as="alternateBounds" />
          </mxGeometry>
        </mxCell>
        <mxCell id="ZLcBtpVqOijyaWh5OA2J-97" value="" style="shape=tableRow;horizontal=0;startSize=0;swimlaneHead=0;swimlaneBody=0;strokeColor=inherit;top=0;left=0;bottom=0;right=0;collapsible=0;dropTarget=0;fillColor=none;points=[[0,0.5],[1,0.5]];portConstraint=eastwest;movable=0;resizable=0;rotatable=0;deletable=0;editable=0;locked=1;connectable=0;" parent="ZLcBtpVqOijyaWh5OA2J-90" vertex="1">
          <mxGeometry y="53" width="225" height="27" as="geometry" />
        </mxCell>
        <mxCell id="ZLcBtpVqOijyaWh5OA2J-98" value="5678B" style="shape=partialRectangle;html=1;whiteSpace=wrap;connectable=0;strokeColor=inherit;overflow=hidden;fillColor=none;top=0;left=0;bottom=0;right=0;pointerEvents=1;movable=0;resizable=0;rotatable=0;deletable=0;editable=0;locked=1;" parent="ZLcBtpVqOijyaWh5OA2J-97" vertex="1">
          <mxGeometry width="113" height="27" as="geometry">
            <mxRectangle width="113" height="27" as="alternateBounds" />
          </mxGeometry>
        </mxCell>
        <mxCell id="ZLcBtpVqOijyaWh5OA2J-99" value="CS101" style="shape=partialRectangle;html=1;whiteSpace=wrap;connectable=0;strokeColor=inherit;overflow=hidden;fillColor=none;top=0;left=0;bottom=0;right=0;pointerEvents=1;movable=0;resizable=0;rotatable=0;deletable=0;editable=0;locked=1;" parent="ZLcBtpVqOijyaWh5OA2J-97" vertex="1">
          <mxGeometry x="113" width="112" height="27" as="geometry">
            <mxRectangle width="112" height="27" as="alternateBounds" />
          </mxGeometry>
        </mxCell>
        <mxCell id="ZLcBtpVqOijyaWh5OA2J-116" value="" style="points=[[0,0.5,0],[0.24,0,0],[0.5,0.28,0],[0.995,0.475,0],[0.5,0.72,0],[0.24,1,0]];verticalLabelPosition=bottom;sketch=0;html=1;verticalAlign=top;aspect=fixed;align=center;pointerEvents=1;shape=mxgraph.cisco19.key;fillColor=#000000;strokeColor=none;direction=south;movable=0;resizable=0;rotatable=0;deletable=0;editable=0;locked=1;connectable=0;" parent="1" vertex="1">
          <mxGeometry x="1530" y="734.92" width="8.31" height="18.47" as="geometry" />
        </mxCell>
        <mxCell id="ZLcBtpVqOijyaWh5OA2J-118" value="" style="points=[[0,0.5,0],[0.24,0,0],[0.5,0.28,0],[0.995,0.475,0],[0.5,0.72,0],[0.24,1,0]];verticalLabelPosition=bottom;sketch=0;html=1;verticalAlign=top;aspect=fixed;align=center;pointerEvents=1;shape=mxgraph.cisco19.key;fillColor=#000000;strokeColor=none;direction=south;movable=0;resizable=0;rotatable=0;deletable=0;editable=0;locked=1;connectable=0;" parent="1" vertex="1">
          <mxGeometry x="1530" y="854" width="8.31" height="18.47" as="geometry" />
        </mxCell>
        <mxCell id="ZLcBtpVqOijyaWh5OA2J-119" value="" style="points=[[0,0.5,0],[0.24,0,0],[0.5,0.28,0],[0.995,0.475,0],[0.5,0.72,0],[0.24,1,0]];verticalLabelPosition=bottom;sketch=0;html=1;verticalAlign=top;aspect=fixed;align=center;pointerEvents=1;shape=mxgraph.cisco19.key;fillColor=#000000;strokeColor=none;direction=south;movable=0;resizable=0;rotatable=0;deletable=0;editable=0;locked=1;connectable=0;" parent="1" vertex="1">
          <mxGeometry x="1530" y="974" width="8.31" height="18.47" as="geometry" />
        </mxCell>
        <mxCell id="ZLcBtpVqOijyaWh5OA2J-120" value="" style="points=[[0,0.5,0],[0.24,0,0],[0.5,0.28,0],[0.995,0.475,0],[0.5,0.72,0],[0.24,1,0]];verticalLabelPosition=bottom;sketch=0;html=1;verticalAlign=top;aspect=fixed;align=center;pointerEvents=1;shape=mxgraph.cisco19.key;fillColor=#000000;strokeColor=none;direction=south;movable=0;resizable=0;rotatable=0;deletable=0;editable=0;locked=1;connectable=0;" parent="1" vertex="1">
          <mxGeometry x="1641" y="974" width="8.31" height="18.47" as="geometry" />
        </mxCell>
        <mxCell id="ZLcBtpVqOijyaWh5OA2J-121" value="&lt;font style=&quot;font-size: 30px;&quot;&gt;Usuario / Cliente&lt;/font&gt;" style="shape=umlActor;verticalLabelPosition=bottom;verticalAlign=top;html=1;outlineConnect=0;strokeWidth=3;fontStyle=1;fontSize=30;" parent="1" vertex="1">
          <mxGeometry x="100" y="840" width="60" height="120" as="geometry" />
        </mxCell>
        <mxCell id="ZLcBtpVqOijyaWh5OA2J-125" value="" style="rounded=1;whiteSpace=wrap;html=1;" parent="1" vertex="1">
          <mxGeometry x="40.010000000000005" y="39.999999999999986" width="600" height="760" as="geometry" />
        </mxCell>
        <mxCell id="ZLcBtpVqOijyaWh5OA2J-128" value="&lt;b style=&quot;border-color: var(--border-color);&quot;&gt;&lt;font style=&quot;border-color: var(--border-color); font-size: 45px;&quot;&gt;BACKEND / SERVIDOR&lt;/font&gt;&lt;/b&gt;" style="text;html=1;strokeColor=none;fillColor=none;align=center;verticalAlign=middle;whiteSpace=wrap;rounded=0;" parent="1" vertex="1">
          <mxGeometry x="1000.63" y="62.5" width="558.75" height="55" as="geometry" />
        </mxCell>
        <mxCell id="ZLcBtpVqOijyaWh5OA2J-129" value="&lt;span style=&quot;font-size: 45px;&quot;&gt;&lt;b&gt;FRONTEND / CLIENTE&lt;/b&gt;&lt;/span&gt;" style="text;html=1;strokeColor=none;fillColor=none;align=center;verticalAlign=middle;whiteSpace=wrap;rounded=0;" parent="1" vertex="1">
          <mxGeometry x="60.64" y="62.5" width="558.75" height="55" as="geometry" />
        </mxCell>
        <mxCell id="ZLcBtpVqOijyaWh5OA2J-130" style="edgeStyle=orthogonalEdgeStyle;rounded=0;orthogonalLoop=1;jettySize=auto;html=1;exitX=0.5;exitY=1;exitDx=0;exitDy=0;" parent="1" source="ZLcBtpVqOijyaWh5OA2J-128" target="ZLcBtpVqOijyaWh5OA2J-128" edge="1">
          <mxGeometry relative="1" as="geometry" />
        </mxCell>
        <mxCell id="ZLcBtpVqOijyaWh5OA2J-132" value="" style="rounded=1;whiteSpace=wrap;html=1;" parent="1" vertex="1">
          <mxGeometry x="80" y="543.39" width="520" height="210" as="geometry" />
        </mxCell>
        <mxCell id="ZLcBtpVqOijyaWh5OA2J-133" value="" style="rounded=1;whiteSpace=wrap;html=1;" parent="1" vertex="1">
          <mxGeometry x="80" y="140" width="520" height="380" as="geometry" />
        </mxCell>
        <mxCell id="ZLcBtpVqOijyaWh5OA2J-134" value="&lt;span style=&quot;font-size: 40px;&quot;&gt;&lt;b&gt;UX/UI&lt;/b&gt;&lt;/span&gt;" style="text;html=1;strokeColor=none;fillColor=none;align=center;verticalAlign=middle;whiteSpace=wrap;rounded=0;" parent="1" vertex="1">
          <mxGeometry x="436.26" y="160" width="147.49" height="30" as="geometry" />
        </mxCell>
        <mxCell id="ZLcBtpVqOijyaWh5OA2J-135" value="&lt;span style=&quot;font-size: 40px;&quot;&gt;&lt;b&gt;LÃ³gica FAKE&lt;/b&gt;&lt;/span&gt;" style="text;html=1;strokeColor=none;fillColor=none;align=center;verticalAlign=middle;whiteSpace=wrap;rounded=0;" parent="1" vertex="1">
          <mxGeometry x="310" y="560" width="273.75" height="30" as="geometry" />
        </mxCell>
        <mxCell id="ZLcBtpVqOijyaWh5OA2J-136" value="" style="rounded=1;whiteSpace=wrap;html=1;" parent="1" vertex="1">
          <mxGeometry x="1110" y="140" width="690" height="460" as="geometry" />
        </mxCell>
        <mxCell id="ZLcBtpVqOijyaWh5OA2J-137" value="&lt;span style=&quot;font-size: 40px;&quot;&gt;&lt;b&gt;LÃ³gica de Negocio&lt;/b&gt;&lt;/span&gt;" style="text;html=1;strokeColor=none;fillColor=none;align=center;verticalAlign=middle;whiteSpace=wrap;rounded=0;" parent="1" vertex="1">
          <mxGeometry x="1350" y="160" width="423.75" height="30" as="geometry" />
        </mxCell>
        <mxCell id="ZLcBtpVqOijyaWh5OA2J-140" value="" style="rounded=0;whiteSpace=wrap;html=1;" parent="1" vertex="1">
          <mxGeometry x="1278.7499999999998" y="217.5" width="357.19" height="305" as="geometry" />
        </mxCell>
        <mxCell id="ZLcBtpVqOijyaWh5OA2J-141" value="&lt;b style=&quot;&quot;&gt;&lt;font style=&quot;font-size: 20px;&quot;&gt;LÃ³gica&lt;/font&gt;&lt;/b&gt;" style="text;html=1;strokeColor=none;fillColor=none;align=center;verticalAlign=middle;whiteSpace=wrap;rounded=0;" parent="1" vertex="1">
          <mxGeometry x="1539.3799999999999" y="222.5" width="96.56" height="33.39" as="geometry" />
        </mxCell>
        <mxCell id="ZLcBtpVqOijyaWh5OA2J-142" value="" style="rounded=0;whiteSpace=wrap;html=1;" parent="1" vertex="1">
          <mxGeometry x="1235.9399999999998" y="235" width="96.4" height="30" as="geometry" />
        </mxCell>
        <mxCell id="ZLcBtpVqOijyaWh5OA2J-143" value="" style="rounded=0;whiteSpace=wrap;html=1;" parent="1" vertex="1">
          <mxGeometry x="1235.9399999999998" y="325" width="96.4" height="30" as="geometry" />
        </mxCell>
        <mxCell id="ZLcBtpVqOijyaWh5OA2J-144" value="" style="rounded=0;whiteSpace=wrap;html=1;" parent="1" vertex="1">
          <mxGeometry x="1235.9399999999998" y="280" width="186.4" height="30" as="geometry" />
        </mxCell>
        <mxCell id="ZLcBtpVqOijyaWh5OA2J-145" value="" style="rounded=0;whiteSpace=wrap;html=1;" parent="1" vertex="1">
          <mxGeometry x="1235.9399999999998" y="375" width="120" height="30" as="geometry" />
        </mxCell>
        <mxCell id="ZLcBtpVqOijyaWh5OA2J-146" value="" style="rounded=0;whiteSpace=wrap;html=1;" parent="1" vertex="1">
          <mxGeometry x="1235.9399999999998" y="425" width="120" height="30" as="geometry" />
        </mxCell>
        <mxCell id="ZLcBtpVqOijyaWh5OA2J-147" value="" style="rounded=0;whiteSpace=wrap;html=1;" parent="1" vertex="1">
          <mxGeometry x="1521.48" y="272.5" width="151.73" height="30" as="geometry" />
        </mxCell>
        <mxCell id="ZLcBtpVqOijyaWh5OA2J-148" value="" style="rounded=0;whiteSpace=wrap;html=1;" parent="1" vertex="1">
          <mxGeometry x="1492.34" y="325" width="181.73" height="30" as="geometry" />
        </mxCell>
        <mxCell id="ZLcBtpVqOijyaWh5OA2J-149" value="" style="rounded=0;whiteSpace=wrap;html=1;" parent="1" vertex="1">
          <mxGeometry x="1512.34" y="375" width="161.73" height="30" as="geometry" />
        </mxCell>
        <mxCell id="ZLcBtpVqOijyaWh5OA2J-150" value="" style="rounded=0;whiteSpace=wrap;html=1;" parent="1" vertex="1">
          <mxGeometry x="1472.34" y="425" width="201.73" height="30" as="geometry" />
        </mxCell>
        <mxCell id="ZLcBtpVqOijyaWh5OA2J-151" value="" style="rounded=0;whiteSpace=wrap;html=1;" parent="1" vertex="1">
          <mxGeometry x="1592.34" y="475" width="81.73" height="30" as="geometry" />
        </mxCell>
        <mxCell id="ZLcBtpVqOijyaWh5OA2J-152" value="" style="rounded=0;whiteSpace=wrap;html=1;" parent="1" vertex="1">
          <mxGeometry x="1235.9399999999998" y="475" width="120" height="30" as="geometry" />
        </mxCell>
        <mxCell id="ZLcBtpVqOijyaWh5OA2J-153" value="&lt;b style=&quot;border-color: var(--border-color);&quot;&gt;constructor()&lt;/b&gt;" style="text;html=1;strokeColor=none;fillColor=none;align=center;verticalAlign=middle;whiteSpace=wrap;rounded=0;" parent="1" vertex="1">
          <mxGeometry x="1254.1399999999999" y="235" width="60" height="30" as="geometry" />
        </mxCell>
        <mxCell id="ZLcBtpVqOijyaWh5OA2J-154" value="&lt;b&gt;borrarFilasDe()&lt;/b&gt;" style="text;html=1;strokeColor=none;fillColor=none;align=center;verticalAlign=middle;whiteSpace=wrap;rounded=0;" parent="1" vertex="1">
          <mxGeometry x="1254.1399999999999" y="325" width="60" height="30" as="geometry" />
        </mxCell>
        <mxCell id="ZLcBtpVqOijyaWh5OA2J-155" value="&lt;b&gt;borrarFilasDeTodasLasTablas()&lt;/b&gt;" style="text;html=1;strokeColor=none;fillColor=none;align=center;verticalAlign=middle;whiteSpace=wrap;rounded=0;" parent="1" vertex="1">
          <mxGeometry x="1299.1399999999999" y="280" width="60" height="30" as="geometry" />
        </mxCell>
        <mxCell id="ZLcBtpVqOijyaWh5OA2J-156" value="&lt;b&gt;insertarPersona()&lt;/b&gt;" style="text;html=1;strokeColor=none;fillColor=none;align=center;verticalAlign=middle;whiteSpace=wrap;rounded=0;" parent="1" vertex="1">
          <mxGeometry x="1265.9399999999998" y="375" width="60" height="30" as="geometry" />
        </mxCell>
        <mxCell id="ZLcBtpVqOijyaWh5OA2J-157" value="&lt;b&gt;insertarAsignatura()&lt;/b&gt;" style="text;html=1;strokeColor=none;fillColor=none;align=center;verticalAlign=middle;whiteSpace=wrap;rounded=0;" parent="1" vertex="1">
          <mxGeometry x="1265.9399999999998" y="425" width="60" height="30" as="geometry" />
        </mxCell>
        <mxCell id="ZLcBtpVqOijyaWh5OA2J-158" value="&lt;b&gt;realizarMatricula()&lt;/b&gt;" style="text;html=1;strokeColor=none;fillColor=none;align=center;verticalAlign=middle;whiteSpace=wrap;rounded=0;" parent="1" vertex="1">
          <mxGeometry x="1265.9399999999998" y="475" width="60" height="30" as="geometry" />
        </mxCell>
        <mxCell id="ZLcBtpVqOijyaWh5OA2J-159" value="&lt;b&gt;buscarPersonaConDNI()&lt;/b&gt;" style="text;html=1;strokeColor=none;fillColor=none;align=center;verticalAlign=middle;whiteSpace=wrap;rounded=0;" parent="1" vertex="1">
          <mxGeometry x="1566.48" y="273.75" width="60" height="27.5" as="geometry" />
        </mxCell>
        <mxCell id="ZLcBtpVqOijyaWh5OA2J-160" value="&lt;b&gt;buscarAsignaturaPorCodigo()&lt;/b&gt;" style="text;html=1;strokeColor=none;fillColor=none;align=center;verticalAlign=middle;whiteSpace=wrap;rounded=0;" parent="1" vertex="1">
          <mxGeometry x="1554.07" y="325" width="60" height="30" as="geometry" />
        </mxCell>
        <mxCell id="ZLcBtpVqOijyaWh5OA2J-161" value="&lt;b&gt;buscarMatriculaPorClave()&lt;/b&gt;" style="text;html=1;strokeColor=none;fillColor=none;align=center;verticalAlign=middle;whiteSpace=wrap;rounded=0;" parent="1" vertex="1">
          <mxGeometry x="1562.34" y="375" width="60" height="30" as="geometry" />
        </mxCell>
        <mxCell id="ZLcBtpVqOijyaWh5OA2J-162" value="&lt;b&gt;obtenerAsignaturasPorApellidos()&lt;/b&gt;" style="text;html=1;strokeColor=none;fillColor=none;align=center;verticalAlign=middle;whiteSpace=wrap;rounded=0;" parent="1" vertex="1">
          <mxGeometry x="1543.2" y="425" width="60" height="30" as="geometry" />
        </mxCell>
        <mxCell id="ZLcBtpVqOijyaWh5OA2J-163" value="&lt;b style=&quot;border-color: var(--border-color);&quot;&gt;cerrar()&lt;/b&gt;" style="text;html=1;strokeColor=none;fillColor=none;align=center;verticalAlign=middle;whiteSpace=wrap;rounded=0;" parent="1" vertex="1">
          <mxGeometry x="1603.2" y="475" width="60" height="30" as="geometry" />
        </mxCell>
        <mxCell id="ZLcBtpVqOijyaWh5OA2J-210" value="" style="endArrow=classic;html=1;rounded=0;" parent="1" edge="1">
          <mxGeometry width="50" height="50" relative="1" as="geometry">
            <mxPoint x="1674.07" y="302.5" as="sourcePoint" />
            <mxPoint x="1714.07" y="302.5" as="targetPoint" />
          </mxGeometry>
        </mxCell>
        <mxCell id="ZLcBtpVqOijyaWh5OA2J-212" value="" style="endArrow=classic;html=1;rounded=0;" parent="1" edge="1">
          <mxGeometry width="50" height="50" relative="1" as="geometry">
            <mxPoint x="1714.0699999999995" y="272.5" as="sourcePoint" />
            <mxPoint x="1674.0699999999995" y="272.5" as="targetPoint" />
          </mxGeometry>
        </mxCell>
        <mxCell id="ZLcBtpVqOijyaWh5OA2J-213" value="" style="endArrow=classic;html=1;rounded=0;" parent="1" edge="1">
          <mxGeometry width="50" height="50" relative="1" as="geometry">
            <mxPoint x="1521.4799999999996" y="287.40000000000003" as="sourcePoint" />
            <mxPoint x="1481.4799999999996" y="287.40000000000003" as="targetPoint" />
          </mxGeometry>
        </mxCell>
        <mxCell id="ZLcBtpVqOijyaWh5OA2J-216" value="" style="endArrow=classic;html=1;rounded=0;" parent="1" edge="1">
          <mxGeometry width="50" height="50" relative="1" as="geometry">
            <mxPoint x="1674.07" y="355" as="sourcePoint" />
            <mxPoint x="1714.07" y="355" as="targetPoint" />
          </mxGeometry>
        </mxCell>
        <mxCell id="ZLcBtpVqOijyaWh5OA2J-217" value="" style="endArrow=classic;html=1;rounded=0;" parent="1" edge="1">
          <mxGeometry width="50" height="50" relative="1" as="geometry">
            <mxPoint x="1714.0699999999995" y="325" as="sourcePoint" />
            <mxPoint x="1674.0699999999995" y="325" as="targetPoint" />
          </mxGeometry>
        </mxCell>
        <mxCell id="ZLcBtpVqOijyaWh5OA2J-218" value="" style="endArrow=classic;html=1;rounded=0;" parent="1" edge="1">
          <mxGeometry width="50" height="50" relative="1" as="geometry">
            <mxPoint x="1674.07" y="404.40999999999997" as="sourcePoint" />
            <mxPoint x="1714.07" y="404.40999999999997" as="targetPoint" />
          </mxGeometry>
        </mxCell>
        <mxCell id="ZLcBtpVqOijyaWh5OA2J-219" value="" style="endArrow=classic;html=1;rounded=0;" parent="1" edge="1">
          <mxGeometry width="50" height="50" relative="1" as="geometry">
            <mxPoint x="1714.0699999999995" y="374.40999999999997" as="sourcePoint" />
            <mxPoint x="1674.0699999999995" y="374.40999999999997" as="targetPoint" />
          </mxGeometry>
        </mxCell>
        <mxCell id="ZLcBtpVqOijyaWh5OA2J-220" value="" style="endArrow=classic;html=1;rounded=0;" parent="1" edge="1">
          <mxGeometry width="50" height="50" relative="1" as="geometry">
            <mxPoint x="1674.07" y="455" as="sourcePoint" />
            <mxPoint x="1714.07" y="455" as="targetPoint" />
          </mxGeometry>
        </mxCell>
        <mxCell id="ZLcBtpVqOijyaWh5OA2J-221" value="" style="endArrow=classic;html=1;rounded=0;" parent="1" edge="1">
          <mxGeometry width="50" height="50" relative="1" as="geometry">
            <mxPoint x="1714.0699999999995" y="425" as="sourcePoint" />
            <mxPoint x="1674.0699999999995" y="425" as="targetPoint" />
          </mxGeometry>
        </mxCell>
        <mxCell id="ZLcBtpVqOijyaWh5OA2J-222" value="" style="endArrow=classic;html=1;rounded=0;" parent="1" edge="1">
          <mxGeometry width="50" height="50" relative="1" as="geometry">
            <mxPoint x="1674.07" y="505" as="sourcePoint" />
            <mxPoint x="1714.07" y="505" as="targetPoint" />
          </mxGeometry>
        </mxCell>
        <mxCell id="ZLcBtpVqOijyaWh5OA2J-223" value="" style="endArrow=classic;html=1;rounded=0;" parent="1" edge="1">
          <mxGeometry width="50" height="50" relative="1" as="geometry">
            <mxPoint x="1714.0699999999995" y="475" as="sourcePoint" />
            <mxPoint x="1674.0699999999995" y="475" as="targetPoint" />
          </mxGeometry>
        </mxCell>
        <mxCell id="ZLcBtpVqOijyaWh5OA2J-224" value="" style="endArrow=classic;html=1;rounded=0;" parent="1" edge="1">
          <mxGeometry width="50" height="50" relative="1" as="geometry">
            <mxPoint x="1235.9399999999998" y="265" as="sourcePoint" />
            <mxPoint x="1195.9399999999998" y="265" as="targetPoint" />
          </mxGeometry>
        </mxCell>
        <mxCell id="ZLcBtpVqOijyaWh5OA2J-225" value="" style="endArrow=classic;html=1;rounded=0;" parent="1" edge="1">
          <mxGeometry width="50" height="50" relative="1" as="geometry">
            <mxPoint x="1195.9399999999994" y="235" as="sourcePoint" />
            <mxPoint x="1235.9399999999994" y="235" as="targetPoint" />
          </mxGeometry>
        </mxCell>
        <mxCell id="ZLcBtpVqOijyaWh5OA2J-226" value="" style="endArrow=classic;html=1;rounded=0;" parent="1" edge="1">
          <mxGeometry width="50" height="50" relative="1" as="geometry">
            <mxPoint x="1235.9399999999998" y="355" as="sourcePoint" />
            <mxPoint x="1195.9399999999998" y="355" as="targetPoint" />
          </mxGeometry>
        </mxCell>
        <mxCell id="ZLcBtpVqOijyaWh5OA2J-227" value="" style="endArrow=classic;html=1;rounded=0;" parent="1" edge="1">
          <mxGeometry width="50" height="50" relative="1" as="geometry">
            <mxPoint x="1195.9399999999994" y="325" as="sourcePoint" />
            <mxPoint x="1235.9399999999994" y="325" as="targetPoint" />
          </mxGeometry>
        </mxCell>
        <mxCell id="ZLcBtpVqOijyaWh5OA2J-228" value="" style="endArrow=classic;html=1;rounded=0;" parent="1" edge="1">
          <mxGeometry width="50" height="50" relative="1" as="geometry">
            <mxPoint x="1235.9399999999998" y="310" as="sourcePoint" />
            <mxPoint x="1195.9399999999998" y="310" as="targetPoint" />
          </mxGeometry>
        </mxCell>
        <mxCell id="ZLcBtpVqOijyaWh5OA2J-229" value="" style="endArrow=classic;html=1;rounded=0;" parent="1" edge="1">
          <mxGeometry width="50" height="50" relative="1" as="geometry">
            <mxPoint x="1195.9399999999994" y="280" as="sourcePoint" />
            <mxPoint x="1235.9399999999994" y="280" as="targetPoint" />
          </mxGeometry>
        </mxCell>
        <mxCell id="ZLcBtpVqOijyaWh5OA2J-230" value="" style="endArrow=classic;html=1;rounded=0;" parent="1" edge="1">
          <mxGeometry width="50" height="50" relative="1" as="geometry">
            <mxPoint x="1235.9399999999998" y="404.74" as="sourcePoint" />
            <mxPoint x="1195.9399999999998" y="404.74" as="targetPoint" />
          </mxGeometry>
        </mxCell>
        <mxCell id="ZLcBtpVqOijyaWh5OA2J-231" value="" style="endArrow=classic;html=1;rounded=0;" parent="1" edge="1">
          <mxGeometry width="50" height="50" relative="1" as="geometry">
            <mxPoint x="1195.9399999999994" y="374.74" as="sourcePoint" />
            <mxPoint x="1235.9399999999994" y="374.74" as="targetPoint" />
          </mxGeometry>
        </mxCell>
        <mxCell id="ZLcBtpVqOijyaWh5OA2J-232" value="" style="endArrow=classic;html=1;rounded=0;" parent="1" edge="1">
          <mxGeometry width="50" height="50" relative="1" as="geometry">
            <mxPoint x="1235.9399999999998" y="454.2" as="sourcePoint" />
            <mxPoint x="1195.9399999999998" y="454.2" as="targetPoint" />
          </mxGeometry>
        </mxCell>
        <mxCell id="ZLcBtpVqOijyaWh5OA2J-233" value="" style="endArrow=classic;html=1;rounded=0;" parent="1" edge="1">
          <mxGeometry width="50" height="50" relative="1" as="geometry">
            <mxPoint x="1195.9399999999994" y="424.2" as="sourcePoint" />
            <mxPoint x="1235.9399999999994" y="424.2" as="targetPoint" />
          </mxGeometry>
        </mxCell>
        <mxCell id="ZLcBtpVqOijyaWh5OA2J-234" value="" style="endArrow=classic;html=1;rounded=0;" parent="1" edge="1">
          <mxGeometry width="50" height="50" relative="1" as="geometry">
            <mxPoint x="1235.9399999999998" y="505" as="sourcePoint" />
            <mxPoint x="1195.9399999999998" y="505" as="targetPoint" />
          </mxGeometry>
        </mxCell>
        <mxCell id="ZLcBtpVqOijyaWh5OA2J-235" value="" style="endArrow=classic;html=1;rounded=0;" parent="1" edge="1">
          <mxGeometry width="50" height="50" relative="1" as="geometry">
            <mxPoint x="1195.9399999999994" y="475" as="sourcePoint" />
            <mxPoint x="1235.9399999999994" y="475" as="targetPoint" />
          </mxGeometry>
        </mxCell>
        <mxCell id="ZLcBtpVqOijyaWh5OA2J-236" value="" style="endArrow=classic;html=1;rounded=0;" parent="1" edge="1">
          <mxGeometry width="50" height="50" relative="1" as="geometry">
            <mxPoint x="1492.3399999999995" y="339.81" as="sourcePoint" />
            <mxPoint x="1452.3399999999995" y="339.81" as="targetPoint" />
          </mxGeometry>
        </mxCell>
        <mxCell id="ZLcBtpVqOijyaWh5OA2J-237" value="" style="endArrow=classic;html=1;rounded=0;" parent="1" edge="1">
          <mxGeometry width="50" height="50" relative="1" as="geometry">
            <mxPoint x="1512.3399999999995" y="389.67" as="sourcePoint" />
            <mxPoint x="1472.3399999999995" y="389.67" as="targetPoint" />
          </mxGeometry>
        </mxCell>
        <mxCell id="ZLcBtpVqOijyaWh5OA2J-238" value="" style="endArrow=classic;html=1;rounded=0;" parent="1" edge="1">
          <mxGeometry width="50" height="50" relative="1" as="geometry">
            <mxPoint x="1472.3399999999995" y="439.67" as="sourcePoint" />
            <mxPoint x="1432.3399999999995" y="439.67" as="targetPoint" />
          </mxGeometry>
        </mxCell>
        <mxCell id="ZLcBtpVqOijyaWh5OA2J-239" value="" style="endArrow=classic;html=1;rounded=0;" parent="1" edge="1">
          <mxGeometry width="50" height="50" relative="1" as="geometry">
            <mxPoint x="1592.3399999999995" y="489.6700000000001" as="sourcePoint" />
            <mxPoint x="1552.3399999999995" y="489.6700000000001" as="targetPoint" />
          </mxGeometry>
        </mxCell>
        <mxCell id="ZLcBtpVqOijyaWh5OA2J-240" value="" style="endArrow=classic;html=1;rounded=0;" parent="1" edge="1">
          <mxGeometry width="50" height="50" relative="1" as="geometry">
            <mxPoint x="1355.9399999999994" y="489.70000000000005" as="sourcePoint" />
            <mxPoint x="1395.9399999999994" y="489.70000000000005" as="targetPoint" />
          </mxGeometry>
        </mxCell>
        <mxCell id="ZLcBtpVqOijyaWh5OA2J-241" value="" style="endArrow=classic;html=1;rounded=0;" parent="1" edge="1">
          <mxGeometry width="50" height="50" relative="1" as="geometry">
            <mxPoint x="1355.9399999999994" y="439.70000000000005" as="sourcePoint" />
            <mxPoint x="1395.9399999999994" y="439.70000000000005" as="targetPoint" />
          </mxGeometry>
        </mxCell>
        <mxCell id="ZLcBtpVqOijyaWh5OA2J-242" value="" style="endArrow=classic;html=1;rounded=0;" parent="1" edge="1">
          <mxGeometry width="50" height="50" relative="1" as="geometry">
            <mxPoint x="1355.9399999999994" y="389.70000000000005" as="sourcePoint" />
            <mxPoint x="1395.9399999999994" y="389.70000000000005" as="targetPoint" />
          </mxGeometry>
        </mxCell>
        <mxCell id="ZLcBtpVqOijyaWh5OA2J-243" value="" style="endArrow=classic;html=1;rounded=0;" parent="1" edge="1">
          <mxGeometry width="50" height="50" relative="1" as="geometry">
            <mxPoint x="1422.3399999999995" y="294.69000000000005" as="sourcePoint" />
            <mxPoint x="1462.3399999999995" y="294.69000000000005" as="targetPoint" />
          </mxGeometry>
        </mxCell>
        <mxCell id="ZLcBtpVqOijyaWh5OA2J-245" value="" style="endArrow=classic;html=1;rounded=0;" parent="1" edge="1">
          <mxGeometry width="50" height="50" relative="1" as="geometry">
            <mxPoint x="1332.3399999999995" y="339.83000000000004" as="sourcePoint" />
            <mxPoint x="1372.3399999999995" y="339.83000000000004" as="targetPoint" />
          </mxGeometry>
        </mxCell>
        <mxCell id="ZLcBtpVqOijyaWh5OA2J-246" value="" style="endArrow=classic;html=1;rounded=0;" parent="1" edge="1">
          <mxGeometry width="50" height="50" relative="1" as="geometry">
            <mxPoint x="1332.3399999999995" y="249.80000000000007" as="sourcePoint" />
            <mxPoint x="1372.3399999999995" y="249.80000000000007" as="targetPoint" />
          </mxGeometry>
        </mxCell>
      </root>
    </mxGraphModel>
  </diagram>
</mxfile>
